<mxfile host="app.diagrams.net" agent="Mozilla/5.0 (Windows NT 10.0; Win64; x64) AppleWebKit/537.36 (KHTML, like Gecko) Chrome/128.0.0.0 Safari/537.36 Edg/128.0.0.0" version="24.7.8">
  <diagram id="q6EtwT-zD9d8GnBGvhUz" name="Page-1">
    <mxGraphModel dx="1820" dy="1128" grid="1" gridSize="10" guides="1" tooltips="1" connect="1" arrows="1" fold="1" page="1" pageScale="1" pageWidth="1100" pageHeight="850" math="0" shadow="0">
      <root>
        <mxCell id="0" />
        <mxCell id="1" parent="0" />
        <mxCell id="u41iJmBul1NQoNp-y63D-29" style="edgeStyle=orthogonalEdgeStyle;rounded=0;orthogonalLoop=1;jettySize=auto;html=1;entryX=0;entryY=0.5;entryDx=0;entryDy=0;entryPerimeter=0;startArrow=classic;startFill=1;strokeWidth=2;exitX=0.875;exitY=0.5;exitDx=0;exitDy=0;exitPerimeter=0;fillColor=#f8cecc;strokeColor=#b85450;" parent="1" source="LpFCpJJtLy2Ta8kGQRxm-1" target="u41iJmBul1NQoNp-y63D-24" edge="1">
          <mxGeometry relative="1" as="geometry" />
        </mxCell>
        <mxCell id="u41iJmBul1NQoNp-y63D-31" style="edgeStyle=orthogonalEdgeStyle;rounded=0;orthogonalLoop=1;jettySize=auto;html=1;entryX=0;entryY=0.5;entryDx=0;entryDy=0;startArrow=classic;startFill=1;strokeWidth=2;exitX=0.16;exitY=0.55;exitDx=0;exitDy=0;exitPerimeter=0;fillColor=#f8cecc;strokeColor=#b85450;" parent="1" source="LpFCpJJtLy2Ta8kGQRxm-1" target="LpFCpJJtLy2Ta8kGQRxm-5" edge="1">
          <mxGeometry relative="1" as="geometry">
            <Array as="points">
              <mxPoint x="110" y="125" />
              <mxPoint x="110" y="277" />
            </Array>
          </mxGeometry>
        </mxCell>
        <mxCell id="LpFCpJJtLy2Ta8kGQRxm-1" value="Internet" style="ellipse;shape=cloud;whiteSpace=wrap;html=1;" parent="1" vertex="1">
          <mxGeometry x="139" y="70" width="152" height="100" as="geometry" />
        </mxCell>
        <mxCell id="LpFCpJJtLy2Ta8kGQRxm-4" value="SCED / SC2G" style="swimlane;fillColor=#f8cecc;strokeColor=#b85450;" parent="1" vertex="1">
          <mxGeometry x="160" y="199" width="110" height="230" as="geometry" />
        </mxCell>
        <mxCell id="LpFCpJJtLy2Ta8kGQRxm-5" value="GC CAP" style="image;html=1;image=img/lib/clip_art/networking/Firewall_128x128.png;labelPosition=center;verticalLabelPosition=top;align=center;verticalAlign=bottom;" parent="LpFCpJJtLy2Ta8kGQRxm-4" vertex="1">
          <mxGeometry x="31.25" y="56" width="47.5" height="44" as="geometry" />
        </mxCell>
        <mxCell id="9IwPV1PEUAf9_cNait5j-16" value="GC TIP" style="image;html=1;image=img/lib/clip_art/networking/Firewall_128x128.png;labelPosition=center;verticalLabelPosition=top;align=center;verticalAlign=bottom;" parent="LpFCpJJtLy2Ta8kGQRxm-4" vertex="1">
          <mxGeometry x="31.25" y="144" width="47.5" height="44" as="geometry" />
        </mxCell>
        <mxCell id="LpFCpJJtLy2Ta8kGQRxm-7" value="AWS Cloud" style="swimlane;fillColor=#fff2cc;strokeColor=#d6b656;" parent="1" vertex="1">
          <mxGeometry x="400" y="40" width="720" height="420" as="geometry" />
        </mxCell>
        <mxCell id="LpFCpJJtLy2Ta8kGQRxm-27" value="Perimeter VPC" style="swimlane;startSize=23;fillColor=#f8cecc;strokeColor=#b85450;" parent="LpFCpJJtLy2Ta8kGQRxm-7" vertex="1">
          <mxGeometry x="30" y="110" width="200" height="160" as="geometry" />
        </mxCell>
        <mxCell id="LpFCpJJtLy2Ta8kGQRxm-9" value="AWS Firewall" style="image;html=1;image=img/lib/clip_art/networking/Firewall_128x128.png;labelPosition=center;verticalLabelPosition=top;align=center;verticalAlign=bottom;" parent="LpFCpJJtLy2Ta8kGQRxm-27" vertex="1">
          <mxGeometry x="130" y="58" width="52.5" height="44" as="geometry" />
        </mxCell>
        <mxCell id="u41iJmBul1NQoNp-y63D-54" style="edgeStyle=orthogonalEdgeStyle;rounded=0;orthogonalLoop=1;jettySize=auto;html=1;entryX=-0.052;entryY=0.856;entryDx=0;entryDy=0;entryPerimeter=0;startArrow=classic;startFill=1;endArrow=classic;endFill=1;strokeWidth=3;fillColor=#e1d5e7;strokeColor=#9673a6;" parent="LpFCpJJtLy2Ta8kGQRxm-27" target="LpFCpJJtLy2Ta8kGQRxm-9" edge="1">
          <mxGeometry relative="1" as="geometry">
            <mxPoint x="76.25" y="109" as="sourcePoint" />
          </mxGeometry>
        </mxCell>
        <mxCell id="bAnbHcFf7yLT7gyOMEAK-14" value="Fortiweb ALB" style="image;html=1;image=img/lib/clip_art/networking/Firewall_128x128.png;labelPosition=center;verticalLabelPosition=top;align=center;verticalAlign=bottom;" vertex="1" parent="LpFCpJJtLy2Ta8kGQRxm-27">
          <mxGeometry x="30" y="102" width="52.5" height="44" as="geometry" />
        </mxCell>
        <mxCell id="LpFCpJJtLy2Ta8kGQRxm-28" value="Shared VPC Account" style="swimlane;fillColor=#d5e8d4;strokeColor=#82b366;startSize=23;" parent="LpFCpJJtLy2Ta8kGQRxm-7" vertex="1">
          <mxGeometry x="240" y="40" width="215" height="321" as="geometry" />
        </mxCell>
        <mxCell id="u41iJmBul1NQoNp-y63D-2" value="Routing Engine" style="shape=process;whiteSpace=wrap;html=1;backgroundOutline=1;" parent="LpFCpJJtLy2Ta8kGQRxm-28" vertex="1">
          <mxGeometry x="33.2" y="144" width="148.6" height="70" as="geometry" />
        </mxCell>
        <mxCell id="u41iJmBul1NQoNp-y63D-21" value="Transit Gateway&lt;br&gt;IPSec Endpoint" style="points=[[0,0,0],[0.25,0,0],[0.5,0,0],[0.75,0,0],[1,0,0],[0,1,0],[0.25,1,0],[0.5,1,0],[0.75,1,0],[1,1,0],[0,0.25,0],[0,0.5,0],[0,0.75,0],[1,0.25,0],[1,0.5,0],[1,0.75,0]];outlineConnect=0;fontColor=#232F3E;gradientColor=#945DF2;gradientDirection=north;fillColor=#5A30B5;strokeColor=#ffffff;dashed=0;verticalLabelPosition=bottom;verticalAlign=top;align=center;html=1;fontSize=12;fontStyle=0;aspect=fixed;shape=mxgraph.aws4.resourceIcon;resIcon=mxgraph.aws4.transit_gateway;" parent="LpFCpJJtLy2Ta8kGQRxm-28" vertex="1">
          <mxGeometry x="75" y="50" width="40" height="40" as="geometry" />
        </mxCell>
        <mxCell id="u41iJmBul1NQoNp-y63D-22" style="edgeStyle=orthogonalEdgeStyle;rounded=0;orthogonalLoop=1;jettySize=auto;html=1;entryX=0;entryY=0.5;entryDx=0;entryDy=0;startArrow=classic;startFill=1;strokeWidth=2;exitX=1;exitY=0.5;exitDx=0;exitDy=0;exitPerimeter=0;" parent="LpFCpJJtLy2Ta8kGQRxm-28" source="u41iJmBul1NQoNp-y63D-21" target="u41iJmBul1NQoNp-y63D-2" edge="1">
          <mxGeometry relative="1" as="geometry">
            <Array as="points">
              <mxPoint x="155" y="70" />
              <mxPoint x="155" y="130" />
              <mxPoint x="20" y="130" />
              <mxPoint x="20" y="179" />
            </Array>
          </mxGeometry>
        </mxCell>
        <mxCell id="u41iJmBul1NQoNp-y63D-57" value="DNS" style="points=[[0,0,0],[0.25,0,0],[0.5,0,0],[0.75,0,0],[1,0,0],[0,1,0],[0.25,1,0],[0.5,1,0],[0.75,1,0],[1,1,0],[0,0.25,0],[0,0.5,0],[0,0.75,0],[1,0.25,0],[1,0.5,0],[1,0.75,0]];outlineConnect=0;fontColor=#232F3E;gradientColor=#945DF2;gradientDirection=north;fillColor=#5A30B5;strokeColor=#ffffff;dashed=0;verticalLabelPosition=bottom;verticalAlign=top;align=center;html=1;fontSize=11;fontStyle=0;aspect=fixed;shape=mxgraph.aws4.resourceIcon;resIcon=mxgraph.aws4.route_53;" parent="LpFCpJJtLy2Ta8kGQRxm-28" vertex="1">
          <mxGeometry x="147" y="240" width="40" height="40" as="geometry" />
        </mxCell>
        <mxCell id="u41iJmBul1NQoNp-y63D-58" value="VPCs" style="outlineConnect=0;dashed=0;verticalLabelPosition=bottom;verticalAlign=top;align=center;html=1;shape=mxgraph.aws3.vpc;fillColor=#F58534;gradientColor=none;fontSize=11;" parent="LpFCpJJtLy2Ta8kGQRxm-28" vertex="1">
          <mxGeometry x="107" y="240" width="40" height="40" as="geometry" />
        </mxCell>
        <mxCell id="u41iJmBul1NQoNp-y63D-59" value="Routing" style="points=[[0.5,0,0],[1,0.5,0],[0.5,1,0],[0,0.5,0],[0.145,0.145,0],[0.8555,0.145,0],[0.855,0.8555,0],[0.145,0.855,0]];verticalLabelPosition=bottom;html=1;verticalAlign=top;aspect=fixed;align=center;pointerEvents=1;shape=mxgraph.cisco19.rect;prIcon=router;fillColor=#FAFAFA;strokeColor=#005073;fontSize=11;" parent="LpFCpJJtLy2Ta8kGQRxm-28" vertex="1">
          <mxGeometry x="67" y="240" width="40" height="40" as="geometry" />
        </mxCell>
        <mxCell id="u41iJmBul1NQoNp-y63D-61" value="Security&#xa;groups" style="fillColor=none;strokeColor=#DD3522;verticalAlign=top;fontStyle=0;labelPosition=center;verticalLabelPosition=bottom;align=center;fontSize=11;" parent="LpFCpJJtLy2Ta8kGQRxm-28" vertex="1">
          <mxGeometry x="27" y="240" width="40" height="41" as="geometry" />
        </mxCell>
        <mxCell id="u41iJmBul1NQoNp-y63D-64" value="" style="aspect=fixed;html=1;points=[];align=center;image;fontSize=12;image=img/lib/mscae/Network_Security_Groups_Classic.svg;fontColor=#000000;" parent="LpFCpJJtLy2Ta8kGQRxm-28" vertex="1">
          <mxGeometry x="32.39999999999998" y="240" width="29.6" height="40" as="geometry" />
        </mxCell>
        <mxCell id="IvLlfbLEJNB_qxHZJLbw-5" value="Dev VPC Account" style="swimlane;fillColor=#e1d5e7;strokeColor=#9673a6;" parent="LpFCpJJtLy2Ta8kGQRxm-7" vertex="1">
          <mxGeometry x="480" y="40" width="200" height="160" as="geometry" />
        </mxCell>
        <mxCell id="u41iJmBul1NQoNp-y63D-1" value="" style="group" parent="IvLlfbLEJNB_qxHZJLbw-5" vertex="1" connectable="0">
          <mxGeometry x="117" y="40" width="70" height="104" as="geometry" />
        </mxCell>
        <mxCell id="9IwPV1PEUAf9_cNait5j-4" value="Amazon EC2" style="outlineConnect=0;fontColor=#232F3E;gradientColor=none;strokeColor=#ffffff;fillColor=#232F3E;dashed=0;verticalLabelPosition=middle;verticalAlign=bottom;align=center;html=1;whiteSpace=wrap;fontSize=10;fontStyle=1;spacing=3;shape=mxgraph.aws4.productIcon;prIcon=mxgraph.aws4.ec2;" parent="u41iJmBul1NQoNp-y63D-1" vertex="1">
          <mxGeometry width="40" height="74" as="geometry" />
        </mxCell>
        <mxCell id="9IwPV1PEUAf9_cNait5j-5" value="Amazon EC2" style="outlineConnect=0;fontColor=#232F3E;gradientColor=none;strokeColor=#ffffff;fillColor=#232F3E;dashed=0;verticalLabelPosition=middle;verticalAlign=bottom;align=center;html=1;whiteSpace=wrap;fontSize=10;fontStyle=1;spacing=3;shape=mxgraph.aws4.productIcon;prIcon=mxgraph.aws4.ec2;" parent="u41iJmBul1NQoNp-y63D-1" vertex="1">
          <mxGeometry x="10" y="10" width="40" height="74" as="geometry" />
        </mxCell>
        <mxCell id="9IwPV1PEUAf9_cNait5j-6" value="Amazon EC2" style="outlineConnect=0;fontColor=#232F3E;gradientColor=none;strokeColor=#ffffff;fillColor=#232F3E;dashed=0;verticalLabelPosition=middle;verticalAlign=bottom;align=center;html=1;whiteSpace=wrap;fontSize=10;fontStyle=1;spacing=3;shape=mxgraph.aws4.productIcon;prIcon=mxgraph.aws4.ec2;" parent="u41iJmBul1NQoNp-y63D-1" vertex="1">
          <mxGeometry x="20" y="20" width="40" height="74" as="geometry" />
        </mxCell>
        <mxCell id="9IwPV1PEUAf9_cNait5j-7" value="Amazon EC2" style="outlineConnect=0;fontColor=#232F3E;gradientColor=none;strokeColor=#ffffff;fillColor=#232F3E;dashed=0;verticalLabelPosition=middle;verticalAlign=bottom;align=center;html=1;whiteSpace=wrap;fontSize=10;fontStyle=1;spacing=3;shape=mxgraph.aws4.productIcon;prIcon=mxgraph.aws4.ec2;" parent="u41iJmBul1NQoNp-y63D-1" vertex="1">
          <mxGeometry x="30" y="30" width="40" height="74" as="geometry" />
        </mxCell>
        <mxCell id="IvLlfbLEJNB_qxHZJLbw-18" value="&lt;b&gt;&lt;font style=&quot;font-size: 13px&quot;&gt;Backend &lt;br&gt;ALB&lt;/font&gt;&lt;/b&gt;" style="outlineConnect=0;dashed=0;verticalLabelPosition=top;verticalAlign=bottom;align=center;html=1;shape=mxgraph.aws3.application_load_balancer;fillColor=#F58534;gradientColor=none;labelPosition=center;" parent="IvLlfbLEJNB_qxHZJLbw-5" vertex="1">
          <mxGeometry x="20" y="63.5" width="50" height="43" as="geometry" />
        </mxCell>
        <mxCell id="u41iJmBul1NQoNp-y63D-4" value="Ops VPC Account" style="swimlane;fillColor=#e1d5e7;strokeColor=#9673a6;" parent="LpFCpJJtLy2Ta8kGQRxm-7" vertex="1">
          <mxGeometry x="480" y="240" width="200" height="160" as="geometry" />
        </mxCell>
        <mxCell id="u41iJmBul1NQoNp-y63D-5" value="" style="group" parent="u41iJmBul1NQoNp-y63D-4" vertex="1" connectable="0">
          <mxGeometry x="117" y="40" width="70" height="104" as="geometry" />
        </mxCell>
        <mxCell id="u41iJmBul1NQoNp-y63D-6" value="Amazon EC2" style="outlineConnect=0;fontColor=#232F3E;gradientColor=none;strokeColor=#ffffff;fillColor=#232F3E;dashed=0;verticalLabelPosition=middle;verticalAlign=bottom;align=center;html=1;whiteSpace=wrap;fontSize=10;fontStyle=1;spacing=3;shape=mxgraph.aws4.productIcon;prIcon=mxgraph.aws4.ec2;" parent="u41iJmBul1NQoNp-y63D-5" vertex="1">
          <mxGeometry width="40" height="74" as="geometry" />
        </mxCell>
        <mxCell id="u41iJmBul1NQoNp-y63D-7" value="Amazon EC2" style="outlineConnect=0;fontColor=#232F3E;gradientColor=none;strokeColor=#ffffff;fillColor=#232F3E;dashed=0;verticalLabelPosition=middle;verticalAlign=bottom;align=center;html=1;whiteSpace=wrap;fontSize=10;fontStyle=1;spacing=3;shape=mxgraph.aws4.productIcon;prIcon=mxgraph.aws4.ec2;" parent="u41iJmBul1NQoNp-y63D-5" vertex="1">
          <mxGeometry x="10" y="10" width="40" height="74" as="geometry" />
        </mxCell>
        <mxCell id="u41iJmBul1NQoNp-y63D-8" value="Amazon EC2" style="outlineConnect=0;fontColor=#232F3E;gradientColor=none;strokeColor=#ffffff;fillColor=#232F3E;dashed=0;verticalLabelPosition=middle;verticalAlign=bottom;align=center;html=1;whiteSpace=wrap;fontSize=10;fontStyle=1;spacing=3;shape=mxgraph.aws4.productIcon;prIcon=mxgraph.aws4.ec2;" parent="u41iJmBul1NQoNp-y63D-5" vertex="1">
          <mxGeometry x="20" y="20" width="40" height="74" as="geometry" />
        </mxCell>
        <mxCell id="u41iJmBul1NQoNp-y63D-9" value="Amazon EC2" style="outlineConnect=0;fontColor=#232F3E;gradientColor=none;strokeColor=#ffffff;fillColor=#232F3E;dashed=0;verticalLabelPosition=middle;verticalAlign=bottom;align=center;html=1;whiteSpace=wrap;fontSize=10;fontStyle=1;spacing=3;shape=mxgraph.aws4.productIcon;prIcon=mxgraph.aws4.ec2;" parent="u41iJmBul1NQoNp-y63D-5" vertex="1">
          <mxGeometry x="30" y="30" width="40" height="74" as="geometry" />
        </mxCell>
        <mxCell id="u41iJmBul1NQoNp-y63D-10" value="&lt;b&gt;&lt;font style=&quot;font-size: 13px&quot;&gt;Backend &lt;br&gt;ALB&lt;/font&gt;&lt;/b&gt;" style="outlineConnect=0;dashed=0;verticalLabelPosition=top;verticalAlign=bottom;align=center;html=1;shape=mxgraph.aws3.application_load_balancer;fillColor=#F58534;gradientColor=none;labelPosition=center;" parent="u41iJmBul1NQoNp-y63D-4" vertex="1">
          <mxGeometry x="20" y="58.5" width="50" height="43" as="geometry" />
        </mxCell>
        <mxCell id="u41iJmBul1NQoNp-y63D-12" style="edgeStyle=orthogonalEdgeStyle;rounded=0;orthogonalLoop=1;jettySize=auto;html=1;exitX=1;exitY=0.5;exitDx=0;exitDy=0;entryX=0;entryY=0.5;entryDx=0;entryDy=0;entryPerimeter=0;" parent="LpFCpJJtLy2Ta8kGQRxm-7" source="u41iJmBul1NQoNp-y63D-2" target="IvLlfbLEJNB_qxHZJLbw-18" edge="1">
          <mxGeometry relative="1" as="geometry" />
        </mxCell>
        <mxCell id="u41iJmBul1NQoNp-y63D-13" style="edgeStyle=orthogonalEdgeStyle;rounded=0;orthogonalLoop=1;jettySize=auto;html=1;exitX=1;exitY=0.5;exitDx=0;exitDy=0;entryX=0;entryY=0.5;entryDx=0;entryDy=0;entryPerimeter=0;" parent="LpFCpJJtLy2Ta8kGQRxm-7" source="u41iJmBul1NQoNp-y63D-2" target="u41iJmBul1NQoNp-y63D-10" edge="1">
          <mxGeometry relative="1" as="geometry" />
        </mxCell>
        <mxCell id="LpFCpJJtLy2Ta8kGQRxm-8" value="ISED Legacy" style="swimlane;fillColor=#dae8fc;strokeColor=#6c8ebf;" parent="1" vertex="1">
          <mxGeometry x="270" y="490" width="850" height="370" as="geometry" />
        </mxCell>
        <mxCell id="9IwPV1PEUAf9_cNait5j-22" value="ISED Firewall" style="swimlane;fillColor=#f8cecc;strokeColor=#b85450;" parent="LpFCpJJtLy2Ta8kGQRxm-8" vertex="1">
          <mxGeometry x="15" y="40" width="120" height="130" as="geometry" />
        </mxCell>
        <mxCell id="bAnbHcFf7yLT7gyOMEAK-11" style="edgeStyle=orthogonalEdgeStyle;rounded=0;orthogonalLoop=1;jettySize=auto;html=1;exitX=0;exitY=0.75;exitDx=0;exitDy=0;" edge="1" parent="9IwPV1PEUAf9_cNait5j-22" source="9IwPV1PEUAf9_cNait5j-18">
          <mxGeometry relative="1" as="geometry">
            <mxPoint x="-245" y="-410" as="targetPoint" />
            <Array as="points">
              <mxPoint x="41" y="90" />
              <mxPoint x="-244" y="90" />
            </Array>
          </mxGeometry>
        </mxCell>
        <mxCell id="9IwPV1PEUAf9_cNait5j-18" value="ISED Parapet&lt;br&gt;&amp;nbsp;OZ Firewall" style="image;html=1;image=img/lib/clip_art/networking/Firewall_128x128.png;labelPosition=center;verticalLabelPosition=top;align=center;verticalAlign=bottom;" parent="9IwPV1PEUAf9_cNait5j-22" vertex="1">
          <mxGeometry x="41.25" y="60" width="47.5" height="44" as="geometry" />
        </mxCell>
        <mxCell id="9IwPV1PEUAf9_cNait5j-23" value="PROD net 142.53.104/23" style="swimlane;fillColor=#e1d5e7;strokeColor=#9673a6;" parent="LpFCpJJtLy2Ta8kGQRxm-8" vertex="1">
          <mxGeometry x="160" y="40" width="480" height="130" as="geometry" />
        </mxCell>
        <mxCell id="9IwPV1PEUAf9_cNait5j-24" value="&lt;span style=&quot;font-size: 13px&quot;&gt;&lt;b&gt;HTTP &lt;br&gt;Load-balancer&lt;/b&gt;&lt;/span&gt;" style="outlineConnect=0;dashed=0;verticalLabelPosition=top;verticalAlign=bottom;align=center;html=1;shape=mxgraph.aws3.application_load_balancer;fillColor=#F58534;gradientColor=none;labelPosition=center;" parent="9IwPV1PEUAf9_cNait5j-23" vertex="1">
          <mxGeometry x="28" y="60" width="40" height="45" as="geometry" />
        </mxCell>
        <mxCell id="9IwPV1PEUAf9_cNait5j-27" value="Vmware Environment" style="pointerEvents=1;shadow=0;dashed=0;html=1;strokeColor=none;fillColor=#4495D1;labelPosition=center;verticalLabelPosition=top;verticalAlign=bottom;align=center;outlineConnect=0;shape=mxgraph.veeam.cluster;fontSize=14;" parent="9IwPV1PEUAf9_cNait5j-23" vertex="1">
          <mxGeometry x="116" y="60" width="102.8" height="49.2" as="geometry" />
        </mxCell>
        <mxCell id="9IwPV1PEUAf9_cNait5j-29" value="Database" style="aspect=fixed;perimeter=ellipsePerimeter;html=1;align=center;shadow=0;dashed=0;spacingTop=3;image;image=img/lib/active_directory/databases.svg;fontSize=14;labelPosition=center;verticalLabelPosition=top;verticalAlign=bottom;" parent="9IwPV1PEUAf9_cNait5j-23" vertex="1">
          <mxGeometry x="253" y="60" width="50" height="49" as="geometry" />
        </mxCell>
        <mxCell id="yDvvyaoqFJnCm_sspmu6-1" value="AD DNS" style="points=[[0.015,0.015,0],[0.985,0.015,0],[0.985,0.985,0],[0.015,0.985,0],[0.25,0,0],[0.5,0,0],[0.75,0,0],[1,0.25,0],[1,0.5,0],[1,0.75,0],[0.75,1,0],[0.5,1,0],[0.25,1,0],[0,0.75,0],[0,0.5,0],[0,0.25,0]];verticalLabelPosition=bottom;html=1;verticalAlign=top;aspect=fixed;align=center;pointerEvents=1;shape=mxgraph.cisco19.dns_server;fillColor=#005073;strokeColor=none;" parent="9IwPV1PEUAf9_cNait5j-23" vertex="1">
          <mxGeometry x="320" y="40" width="31.5" height="57.27" as="geometry" />
        </mxCell>
        <mxCell id="yDvvyaoqFJnCm_sspmu6-2" value="Routing" style="points=[[0.5,0,0],[1,0.5,0],[0.5,1,0],[0,0.5,0],[0.145,0.145,0],[0.8555,0.145,0],[0.855,0.8555,0],[0.145,0.855,0]];verticalLabelPosition=bottom;html=1;verticalAlign=top;aspect=fixed;align=center;pointerEvents=1;shape=mxgraph.cisco19.rect;prIcon=router;fillColor=#FAFAFA;strokeColor=#005073;fontSize=11;" parent="9IwPV1PEUAf9_cNait5j-23" vertex="1">
          <mxGeometry x="369" y="45" width="40" height="40" as="geometry" />
        </mxCell>
        <mxCell id="yDvvyaoqFJnCm_sspmu6-3" value="MS AD" style="aspect=fixed;pointerEvents=1;shadow=0;dashed=0;html=1;strokeColor=none;labelPosition=center;verticalLabelPosition=bottom;verticalAlign=top;align=center;fillColor=#00188D;shape=mxgraph.mscae.enterprise.ad_fs" parent="9IwPV1PEUAf9_cNait5j-23" vertex="1">
          <mxGeometry x="424" y="40" width="48" height="60" as="geometry" />
        </mxCell>
        <mxCell id="u41iJmBul1NQoNp-y63D-15" style="edgeStyle=orthogonalEdgeStyle;rounded=0;orthogonalLoop=1;jettySize=auto;html=1;exitX=1;exitY=0.5;exitDx=0;exitDy=0;entryX=0;entryY=0.5;entryDx=0;entryDy=0;entryPerimeter=0;startArrow=classic;startFill=1;strokeWidth=2;" parent="LpFCpJJtLy2Ta8kGQRxm-8" source="9IwPV1PEUAf9_cNait5j-18" target="9IwPV1PEUAf9_cNait5j-24" edge="1">
          <mxGeometry relative="1" as="geometry" />
        </mxCell>
        <mxCell id="u41iJmBul1NQoNp-y63D-18" style="edgeStyle=orthogonalEdgeStyle;rounded=0;orthogonalLoop=1;jettySize=auto;html=1;exitX=0.5;exitY=1;exitDx=0;exitDy=0;entryX=0.5;entryY=1;entryDx=0;entryDy=0;startArrow=classic;startFill=1;strokeWidth=2;" parent="LpFCpJJtLy2Ta8kGQRxm-8" source="9IwPV1PEUAf9_cNait5j-29" target="9IwPV1PEUAf9_cNait5j-18" edge="1">
          <mxGeometry relative="1" as="geometry">
            <Array as="points">
              <mxPoint x="438" y="210" />
              <mxPoint x="80" y="210" />
            </Array>
          </mxGeometry>
        </mxCell>
        <mxCell id="yDvvyaoqFJnCm_sspmu6-4" style="edgeStyle=orthogonalEdgeStyle;rounded=0;orthogonalLoop=1;jettySize=auto;html=1;exitX=0.5;exitY=1;exitDx=0;exitDy=0;entryX=0.525;entryY=1.016;entryDx=0;entryDy=0;entryPerimeter=0;strokeWidth=2;" parent="LpFCpJJtLy2Ta8kGQRxm-8" source="9IwPV1PEUAf9_cNait5j-18" target="9IwPV1PEUAf9_cNait5j-27" edge="1">
          <mxGeometry relative="1" as="geometry">
            <Array as="points">
              <mxPoint x="80" y="190" />
              <mxPoint x="330" y="190" />
            </Array>
          </mxGeometry>
        </mxCell>
        <mxCell id="yDvvyaoqFJnCm_sspmu6-5" value="Database Restricted Zone" style="swimlane;fillColor=#e1d5e7;strokeColor=#9673a6;" parent="LpFCpJJtLy2Ta8kGQRxm-8" vertex="1">
          <mxGeometry x="650" y="40" width="170" height="130" as="geometry" />
        </mxCell>
        <mxCell id="yDvvyaoqFJnCm_sspmu6-8" value="&lt;br&gt;Oracle" style="aspect=fixed;perimeter=ellipsePerimeter;html=1;align=center;shadow=0;dashed=0;spacingTop=3;image;image=img/lib/active_directory/databases.svg;fontSize=14;labelPosition=center;verticalLabelPosition=top;verticalAlign=bottom;" parent="yDvvyaoqFJnCm_sspmu6-5" vertex="1">
          <mxGeometry x="10" y="60.2" width="50" height="49" as="geometry" />
        </mxCell>
        <mxCell id="yDvvyaoqFJnCm_sspmu6-13" style="edgeStyle=orthogonalEdgeStyle;rounded=0;orthogonalLoop=1;jettySize=auto;html=1;exitX=0.5;exitY=1;exitDx=0;exitDy=0;entryX=0.5;entryY=1;entryDx=0;entryDy=0;strokeWidth=2;" parent="LpFCpJJtLy2Ta8kGQRxm-8" source="9IwPV1PEUAf9_cNait5j-18" target="yDvvyaoqFJnCm_sspmu6-8" edge="1">
          <mxGeometry relative="1" as="geometry">
            <Array as="points">
              <mxPoint x="80" y="210" />
              <mxPoint x="685" y="210" />
            </Array>
          </mxGeometry>
        </mxCell>
        <mxCell id="bAnbHcFf7yLT7gyOMEAK-13" style="edgeStyle=orthogonalEdgeStyle;rounded=0;orthogonalLoop=1;jettySize=auto;html=1;" edge="1" parent="LpFCpJJtLy2Ta8kGQRxm-8" source="bAnbHcFf7yLT7gyOMEAK-2">
          <mxGeometry relative="1" as="geometry">
            <mxPoint x="80" y="210" as="targetPoint" />
          </mxGeometry>
        </mxCell>
        <mxCell id="bAnbHcFf7yLT7gyOMEAK-2" value="GCSRA user Zone 192.168.128.0/17" style="swimlane;fillColor=#e1d5e7;strokeColor=#9673a6;" vertex="1" parent="LpFCpJJtLy2Ta8kGQRxm-8">
          <mxGeometry x="490" y="230" width="330" height="130" as="geometry" />
        </mxCell>
        <mxCell id="bAnbHcFf7yLT7gyOMEAK-4" value="" style="group" vertex="1" connectable="0" parent="bAnbHcFf7yLT7gyOMEAK-2">
          <mxGeometry x="17" y="26" width="70" height="104" as="geometry" />
        </mxCell>
        <mxCell id="bAnbHcFf7yLT7gyOMEAK-5" value="Amazon EC2" style="outlineConnect=0;fontColor=#232F3E;gradientColor=none;strokeColor=#ffffff;fillColor=#232F3E;dashed=0;verticalLabelPosition=middle;verticalAlign=bottom;align=center;html=1;whiteSpace=wrap;fontSize=10;fontStyle=1;spacing=3;shape=mxgraph.aws4.productIcon;prIcon=mxgraph.aws4.ec2;" vertex="1" parent="bAnbHcFf7yLT7gyOMEAK-4">
          <mxGeometry width="40" height="74" as="geometry" />
        </mxCell>
        <mxCell id="bAnbHcFf7yLT7gyOMEAK-6" value="Amazon EC2" style="outlineConnect=0;fontColor=#232F3E;gradientColor=none;strokeColor=#ffffff;fillColor=#232F3E;dashed=0;verticalLabelPosition=middle;verticalAlign=bottom;align=center;html=1;whiteSpace=wrap;fontSize=10;fontStyle=1;spacing=3;shape=mxgraph.aws4.productIcon;prIcon=mxgraph.aws4.ec2;" vertex="1" parent="bAnbHcFf7yLT7gyOMEAK-4">
          <mxGeometry x="10" y="10" width="40" height="74" as="geometry" />
        </mxCell>
        <mxCell id="bAnbHcFf7yLT7gyOMEAK-7" value="Amazon EC2" style="outlineConnect=0;fontColor=#232F3E;gradientColor=none;strokeColor=#ffffff;fillColor=#232F3E;dashed=0;verticalLabelPosition=middle;verticalAlign=bottom;align=center;html=1;whiteSpace=wrap;fontSize=10;fontStyle=1;spacing=3;shape=mxgraph.aws4.productIcon;prIcon=mxgraph.aws4.ec2;" vertex="1" parent="bAnbHcFf7yLT7gyOMEAK-4">
          <mxGeometry x="20" y="20" width="40" height="74" as="geometry" />
        </mxCell>
        <mxCell id="bAnbHcFf7yLT7gyOMEAK-8" value="Win10" style="outlineConnect=0;fontColor=#232F3E;gradientColor=none;strokeColor=#ffffff;fillColor=#232F3E;dashed=0;verticalLabelPosition=middle;verticalAlign=bottom;align=center;html=1;whiteSpace=wrap;fontSize=10;fontStyle=1;spacing=3;shape=mxgraph.aws4.productIcon;prIcon=mxgraph.aws4.ec2;" vertex="1" parent="bAnbHcFf7yLT7gyOMEAK-2">
          <mxGeometry x="107" y="41" width="40" height="79" as="geometry" />
        </mxCell>
        <mxCell id="u41iJmBul1NQoNp-y63D-34" value="IPSec Tunnel" style="edgeStyle=orthogonalEdgeStyle;rounded=0;orthogonalLoop=1;jettySize=auto;html=1;exitX=1;exitY=0.5;exitDx=0;exitDy=0;exitPerimeter=0;startArrow=classic;startFill=1;strokeWidth=3;fillColor=#d5e8d4;strokeColor=#82b366;" parent="1" source="u41iJmBul1NQoNp-y63D-24" edge="1">
          <mxGeometry relative="1" as="geometry">
            <mxPoint x="715" y="140" as="targetPoint" />
          </mxGeometry>
        </mxCell>
        <mxCell id="u41iJmBul1NQoNp-y63D-24" value="AWS Internet&lt;br&gt;Gateway" style="outlineConnect=0;dashed=0;verticalLabelPosition=top;verticalAlign=bottom;align=center;html=1;shape=mxgraph.aws3.internet_gateway;fillColor=#F58534;gradientColor=none;labelPosition=center;" parent="1" vertex="1">
          <mxGeometry x="380" y="100" width="40" height="40" as="geometry" />
        </mxCell>
        <mxCell id="u41iJmBul1NQoNp-y63D-35" style="edgeStyle=orthogonalEdgeStyle;rounded=0;orthogonalLoop=1;jettySize=auto;html=1;entryX=0.145;entryY=0.855;entryDx=0;entryDy=0;entryPerimeter=0;startArrow=classic;startFill=1;strokeWidth=3;fillColor=#f8cecc;strokeColor=#b85450;endArrow=none;endFill=0;exitX=0;exitY=0.5;exitDx=0;exitDy=0;exitPerimeter=0;" parent="1" target="u41iJmBul1NQoNp-y63D-24" edge="1">
          <mxGeometry relative="1" as="geometry">
            <mxPoint x="460.25" y="259" as="sourcePoint" />
          </mxGeometry>
        </mxCell>
        <mxCell id="u41iJmBul1NQoNp-y63D-43" style="edgeStyle=orthogonalEdgeStyle;rounded=0;orthogonalLoop=1;jettySize=auto;html=1;exitX=0;exitY=0.5;exitDx=0;exitDy=0;entryX=0;entryY=0.5;entryDx=0;entryDy=0;startArrow=classic;startFill=1;endArrow=classic;endFill=1;strokeWidth=3;" parent="1" source="9IwPV1PEUAf9_cNait5j-16" target="9IwPV1PEUAf9_cNait5j-18" edge="1">
          <mxGeometry relative="1" as="geometry">
            <Array as="points">
              <mxPoint x="140" y="365" />
              <mxPoint x="140" y="602" />
            </Array>
          </mxGeometry>
        </mxCell>
        <mxCell id="u41iJmBul1NQoNp-y63D-46" style="edgeStyle=orthogonalEdgeStyle;rounded=0;orthogonalLoop=1;jettySize=auto;html=1;entryX=0.145;entryY=0.855;entryDx=0;entryDy=0;entryPerimeter=0;startArrow=classic;startFill=1;endArrow=classic;endFill=1;strokeWidth=3;fillColor=#dae8fc;strokeColor=#6c8ebf;" parent="1" source="LpFCpJJtLy2Ta8kGQRxm-5" edge="1">
          <mxGeometry relative="1" as="geometry">
            <mxPoint x="466.9200000000001" y="276.75" as="targetPoint" />
          </mxGeometry>
        </mxCell>
        <mxCell id="u41iJmBul1NQoNp-y63D-47" value="MACSec Tunnel PB rated" style="edgeStyle=orthogonalEdgeStyle;rounded=0;orthogonalLoop=1;jettySize=auto;html=1;entryX=0.5;entryY=1;entryDx=0;entryDy=0;startArrow=classic;startFill=1;endArrow=classic;endFill=1;strokeWidth=3;" parent="1" source="9IwPV1PEUAf9_cNait5j-16" target="LpFCpJJtLy2Ta8kGQRxm-9" edge="1">
          <mxGeometry relative="1" as="geometry" />
        </mxCell>
        <mxCell id="u41iJmBul1NQoNp-y63D-52" style="edgeStyle=orthogonalEdgeStyle;rounded=0;orthogonalLoop=1;jettySize=auto;html=1;exitX=0;exitY=0.25;exitDx=0;exitDy=0;entryX=0.855;entryY=0.855;entryDx=0;entryDy=0;entryPerimeter=0;startArrow=none;startFill=0;endArrow=classic;endFill=1;strokeWidth=3;fillColor=#d5e8d4;strokeColor=#82b366;" parent="1" source="LpFCpJJtLy2Ta8kGQRxm-9" target="u41iJmBul1NQoNp-y63D-24" edge="1">
          <mxGeometry relative="1" as="geometry" />
        </mxCell>
        <mxCell id="bAnbHcFf7yLT7gyOMEAK-1" value="" style="whiteSpace=wrap;html=1;aspect=fixed;" vertex="1" parent="1">
          <mxGeometry x="1270" y="530" width="80" height="80" as="geometry" />
        </mxCell>
        <mxCell id="bAnbHcFf7yLT7gyOMEAK-10" value="" style="endArrow=classic;html=1;rounded=0;" edge="1" parent="1">
          <mxGeometry width="50" height="50" relative="1" as="geometry">
            <mxPoint x="900" y="600" as="sourcePoint" />
            <mxPoint x="950" y="550" as="targetPoint" />
          </mxGeometry>
        </mxCell>
        <mxCell id="bAnbHcFf7yLT7gyOMEAK-12" value="" style="endArrow=classic;html=1;rounded=0;" edge="1" parent="1">
          <mxGeometry width="50" height="50" relative="1" as="geometry">
            <mxPoint x="900" y="600" as="sourcePoint" />
            <mxPoint x="950" y="550" as="targetPoint" />
          </mxGeometry>
        </mxCell>
      </root>
    </mxGraphModel>
  </diagram>
</mxfile>
